<?xml version="1.0" standalone="no"?>
<!DOCTYPE svg PUBLIC "-//W3C//DTD SVG 20010904//EN"
 "http://www.w3.org/TR/2001/REC-SVG-20010904/DTD/svg10.dtd">

<svg version="1.0" xmlns="http://www.w3.org/2000/svg"
 width="512.000000pt" height="512.000000pt" viewBox="0 0 512.000000 512.000000"
 preserveAspectRatio="xMidYMid meet">

<g transform="translate(0.000000,512.000000) scale(0.100000,-0.100000)"
fill="#000000" stroke="none">
<path d="M2305 5080 c-166 -26 -272 -48 -350 -70 -38 -12 -84 -25 -101 -29
-58 -15 -219 -73 -228 -82 -6 -5 -17 -9 -26 -9 -29 0 -307 -147 -423 -224
-295 -194 -540 -439 -734 -731 -44 -66 -91 -143 -105 -171 -15 -27 -35 -66
-46 -86 -45 -80 -135 -309 -174 -443 -68 -236 -98 -443 -98 -692 0 -337 44
-570 174 -918 44 -119 120 -266 239 -460 24 -39 133 -181 191 -250 98 -114
135 -152 244 -247 56 -50 102 -97 102 -104 0 -27 207 -173 385 -271 203 -113
475 -215 706 -267 l116 -26 478 0 c477 0 478 0 594 26 123 27 368 106 464 148
38 17 57 32 57 43 0 12 22 28 68 48 71 32 253 134 312 175 294 206 508 410
701 670 51 69 209 321 209 334 0 2 -33 16 -72 31 -40 15 -86 33 -103 40 -16 7
-84 33 -150 58 -243 92 -391 149 -435 167 -25 10 -137 53 -250 95 -113 43
-227 86 -255 97 -88 35 -85 36 -139 -42 -129 -184 -319 -329 -536 -408 -90
-32 -223 -67 -302 -78 l-47 -6 6 53 c4 35 23 88 53 149 26 52 55 128 65 167
12 49 23 74 35 78 9 3 22 16 28 30 6 14 17 22 24 20 13 -5 63 64 83 115 21 53
56 99 71 93 11 -4 14 4 14 35 0 23 5 44 10 47 6 3 10 20 10 36 0 26 3 29 21
24 18 -6 19 -5 10 13 -6 12 -11 75 -11 146 0 101 3 126 14 126 11 0 13 15 9
72 -2 40 -8 77 -13 82 -15 15 -12 43 6 61 15 15 15 17 -1 35 -9 10 -17 36 -18
57 0 21 -7 46 -15 55 -21 25 -26 102 -12 204 17 130 22 334 9 351 -6 7 -22 13
-35 13 -17 0 -24 6 -24 20 0 37 -23 69 -62 84 -21 9 -40 16 -43 16 -3 0 -14
-18 -25 -39 -11 -22 -38 -65 -59 -96 -22 -31 -43 -69 -46 -85 -6 -27 -38 -60
-99 -103 -17 -12 -31 -36 -41 -75 -26 -93 -34 -107 -90 -164 -68 -70 -77 -96
-42 -121 l25 -19 -24 -57 c-14 -31 -41 -70 -60 -88 -20 -17 -33 -37 -29 -43 4
-6 -8 -17 -29 -25 -20 -9 -36 -19 -36 -24 0 -5 -13 -14 -30 -20 -16 -5 -30
-14 -30 -19 0 -24 -88 -97 -138 -113 -50 -17 -87 -42 -176 -120 -98 -86 -187
-118 -345 -125 -88 -3 -145 -24 -201 -71 -27 -22 -29 -23 -38 -6 -20 38 -51
172 -62 270 -38 324 100 680 357 924 164 156 321 238 578 302 79 19 116 22
295 22 220 -1 274 -10 439 -71 235 -87 451 -256 588 -459 49 -72 97 -162 113
-210 6 -19 15 -35 19 -35 7 0 389 160 471 197 84 39 240 107 290 127 30 13 71
30 90 39 19 8 69 30 110 47 334 142 323 136 315 168 -8 35 -118 262 -153 315
-37 58 -50 80 -58 97 -4 8 -45 65 -90 125 -135 180 -324 376 -469 487 -38 29
-72 56 -75 59 -8 9 -199 139 -205 139 -3 0 -24 12 -48 27 -64 41 -197 108
-289 147 -248 104 -453 159 -745 201 -146 21 -512 18 -658 -5z m-149 -3466
c-5 -13 -1 -15 18 -10 18 4 28 1 35 -11 8 -15 13 -16 30 -6 25 16 34 5 55 -66
23 -77 22 -80 -16 -71 -88 21 -228 86 -228 105 0 7 17 27 37 44 41 34 79 42
69 15z m412 -47 c23 1 26 -6 61 -139 l9 -38 -31 1 c-18 0 -50 3 -72 7 l-40 7
4 80 c4 91 7 99 30 89 9 -4 26 -7 39 -7z"/>
</g>
</svg>
